<svg xmlns:xlink="http://www.w3.org/1999/xlink" xmlns="http://www.w3.org/2000/svg" class="MuiSvgIcon-root MuiSvgIcon-fontSizeMedium online-genesys-widget-43j7xa" focusable="false" aria-hidden="true" viewBox="0 0 24 24" data-testid="BubbleHelpFilledIcon" width="30"  height="30" ><path d="M19.458 18.763c-.007-.004-.72-.39-.888-1.022-.088-.333-.012-.684.232-1.074a8.195 8.195 0 0 0 1.448-4.666c0-4.549-3.701-8.25-8.25-8.25s-8.25 3.701-8.25 8.25 3.701 8.25 8.25 8.25a8.243 8.243 0 0 0 3.844-.95c.719.571 1.459.764 2.101.764.661 0 1.219-.203 1.547-.407a.519.519 0 0 0 .242-.456.52.52 0 0 0-.275-.438z" fill="#FFFFFF"></path></svg>