<svg xmlns:xlink="http://www.w3.org/1999/xlink" xmlns="http://www.w3.org/2000/svg" class="MuiSvgIcon-root MuiSvgIcon-fontSizeInherit product-box-1cw4hi4" focusable="false" aria-hidden="true" viewBox="0 0 24 24" data-testid="MiniBagFilledIcon" width="24"  height="24" ><path d="M19.319 10.397c-.083-.822-.822-1.49-1.648-1.49h-1.547V7.876c0-2.274-1.851-4.125-4.125-4.125S7.874 5.602 7.874 7.876v1.031H6.327c-.826 0-1.565.669-1.648 1.49l-.826 8.26a1.437 1.437 0 0 0 1.443 1.593h13.406a1.433 1.433 0 0 0 1.443-1.593l-.826-8.26zM8.906 7.875c0-1.706 1.388-3.094 3.094-3.094s3.094 1.388 3.094 3.094v1.031H8.906V7.875z" fill="#333333"></path></svg>