<svg xmlns:xlink="http://www.w3.org/1999/xlink" xmlns="http://www.w3.org/2000/svg" class="MuiSvgIcon-root MuiSvgIcon-fontSizeInherit top-area-1cw4hi4" focusable="false" aria-hidden="true" viewBox="0 0 24 24" data-testid="UserIcon" width="28"  height="28" ><path d="M12 13.032c-3.758 0-6.188 2.023-6.188 5.155 0 1.964 5.154 2.063 6.188 2.063s6.188-.099 6.188-2.063c0-3.132-2.429-5.155-6.188-5.155zm0 6.187c-3.499 0-5.086-.73-5.156-1.031 0-3.04 2.663-4.124 5.156-4.124 2.492 0 5.156 1.084 5.156 4.12-.073.305-1.658 1.035-5.156 1.035zm0-8.25c1.99 0 3.609-1.619 3.609-3.609S13.99 3.751 12 3.751 8.391 5.37 8.391 7.36A3.613 3.613 0 0 0 12 10.969zm0-6.188c1.422 0 2.578 1.156 2.578 2.578S13.422 9.937 12 9.937 9.422 8.781 9.422 7.359 10.578 4.781 12 4.781z" fill="#777777"></path></svg>