<svg xmlns:xlink="http://www.w3.org/1999/xlink" xmlns="http://www.w3.org/2000/svg" class="MuiSvgIcon-root MuiSvgIcon-fontSizeMedium top-area-ukvtrc" focusable="false" aria-hidden="true" viewBox="0 0 24 24" data-testid="ProductsIcon" width="28"  height="28" ><path d="M19.245 4.225a1.435 1.435 0 0 0-1.078-.475h-5.156c-.419 0-.812.173-1.078.475-.267.302-.39.713-.337 1.128l1.415 11.32v2.03c0 .853.694 1.547 1.547 1.547h2.063c.853 0 1.547-.694 1.547-1.547v-2.03l1.415-11.32a1.437 1.437 0 0 0-.337-1.128zm-2.624 14.994h-2.062a.517.517 0 0 1-.516-.516v-1.547h3.094v1.547a.517.517 0 0 1-.516.516zm.576-3.094h-3.215L12.619 5.224a.386.386 0 0 1 .088-.316.39.39 0 0 1 .304-.127h5.156a.39.39 0 0 1 .304.127.395.395 0 0 1 .088.316l-1.363 10.901zM7.35 3.75c-1.867 0-2.565.736-2.639.82a1.35 1.35 0 0 0-.181 1.42l1.262 2.523v10.191c0 .853.694 1.547 1.547 1.547s1.547-.694 1.547-1.547V8.513l1.262-2.523a1.36 1.36 0 0 0-.173-1.418c-.072-.085-.754-.822-2.624-.822zm-.011 15.469a.517.517 0 0 1-.516-.516V8.906h1.031v9.797a.517.517 0 0 1-.516.516zm1.887-13.69L8.052 7.875H6.627L5.454 5.529c-.033-.066-.014-.224.025-.268.005-.005.489-.479 1.872-.479 1.365 0 1.839.459 1.84.459.049.058.069.22.035.288z" fill="#333333"></path></svg>