<svg xmlns:xlink="http://www.w3.org/1999/xlink" xmlns="http://www.w3.org/2000/svg" class="MuiSvgIcon-root MuiSvgIcon-fontSizeInherit front-page-15huyv8" focusable="false" aria-hidden="true" viewBox="0 0 24 24" data-testid="ClearIcon" width="27"  height="50" ><path d="m12.961 12 6.09-6.09a.678.678 0 1 0-.961-.961L12 11.039l-6.09-6.09a.678.678 0 1 0-.961.961l6.09 6.09-6.09 6.09a.678.678 0 0 0 .481 1.16.676.676 0 0 0 .481-.199l6.09-6.09 6.09 6.09c.133.133.306.199.481.199s.348-.066.481-.199a.678.678 0 0 0 0-.961L12.963 12z" fill="#FFFFFF"></path></svg>