<svg xmlns:xlink="http://www.w3.org/1999/xlink" data-testid="Presentation-beauty-edit-logo" xmlns="http://www.w3.org/2000/svg" width="150" height="80.009" viewBox="0 0 150 80.009"><g transform="translate(0 -74.389)"><path d="M1002.428,694.189h6.971l.662,2.2-.19.106a9.045,9.045,0,0,0-.778-1.112,2.609,2.609,0,0,0-.643-.549,2.012,2.012,0,0,0-.733-.25,10.325,10.325,0,0,0-1.366-.061h-1.414v4.2h.717a5.982,5.982,0,0,0,1.071-.068,1.567,1.567,0,0,0,.6-.256,1.246,1.246,0,0,0,.391-.5,3.848,3.848,0,0,0,.236-.907h.191v3.8h-.191a3.754,3.754,0,0,0-.25-.907,1.294,1.294,0,0,0-.383-.494,1.5,1.5,0,0,0-.609-.26,5.729,5.729,0,0,0-1.053-.071h-.717v3.373a1.125,1.125,0,0,0,.218.827,1.488,1.488,0,0,0,.922.193h.844a3.293,3.293,0,0,0,1.843-.419,6.283,6.283,0,0,0,1.482-1.834l.2.085-.513,2.507h-7.5v-.184c.525-.066.851-.188.974-.369a2.761,2.761,0,0,0,.188-1.306v-5.895a2.786,2.786,0,0,0-.184-1.3c-.126-.185-.453-.308-.978-.375Z" transform="translate(-910.79 -563.141)"></path><path style="" d="M1131.814,697.72a4.722,4.722,0,0,0-2.405-.539c-.737,0-1.178.1-1.324.29a1.457,1.457,0,0,0-.1.717v6.985a1.77,1.77,0,0,0,.085.733.891.891,0,0,0,.527.253,4.266,4.266,0,0,0,.966.1,4.836,4.836,0,0,0,1.634-.271,3.382,3.382,0,0,0,1.253-.756,3.851,3.851,0,0,0,.9-1.486,5.883,5.883,0,0,0,.324-1.971,6.033,6.033,0,0,0-.449-2.358A3.431,3.431,0,0,0,1131.814,697.72Z" transform="translate(-1024.865 -565.859)" fill="none"></path><path d="M1109.625,695.847a4.1,4.1,0,0,0-2.473-2.062,7.417,7.417,0,0,0-2.217-.288c-.269,0-.7.011-1.3.033q-.775.03-1.24.03h-1.837v.182c.525.067.852.189.978.375a2.781,2.781,0,0,1,.183,1.3v5.895a2.774,2.774,0,0,1-.187,1.307q-.186.271-.974.369v.184h1.619l2.246.071a8.614,8.614,0,0,0,3.067-.454,3.952,3.952,0,0,0,1.862-1.469,5.2,5.2,0,0,0,.846-3.015A5.119,5.119,0,0,0,1109.625,695.847Zm-1.2,4.549a3.844,3.844,0,0,1-.9,1.486,3.377,3.377,0,0,1-1.253.756,4.835,4.835,0,0,1-1.634.271,4.292,4.292,0,0,1-.966-.1.892.892,0,0,1-.527-.253,1.772,1.772,0,0,1-.084-.733V694.84a1.458,1.458,0,0,1,.1-.717c.146-.194.588-.29,1.324-.29a4.725,4.725,0,0,1,2.405.538,3.431,3.431,0,0,1,1.405,1.695,6.036,6.036,0,0,1,.449,2.359A5.868,5.868,0,0,1,1108.427,700.4Z" transform="translate(-999.946 -562.511)"></path><path d="M1223.382,694.372c-.527.067-.852.188-.975.371a2.785,2.785,0,0,0-.187,1.3v5.895a2.828,2.828,0,0,0,.183,1.3q.19.275.98.373v.184h-3.669v-.184q.79-.1.975-.369a2.8,2.8,0,0,0,.187-1.307v-5.895a2.819,2.819,0,0,0-.183-1.3c-.127-.185-.452-.308-.979-.375v-.182h3.669Z" transform="translate(-1108.212 -563.141)"></path><path d="M1270.457,700.724v-.184c.524-.066.851-.188.977-.369a2.719,2.719,0,0,0,.192-1.307v-7.408h-1.718a2.945,2.945,0,0,0-.832.085,1.327,1.327,0,0,0-.61.461,18.75,18.75,0,0,0-1.024,1.579l-.2-.071L1268,690.8h.192a.7.7,0,0,0,.394.239,3.6,3.6,0,0,0,.822.07h5.782a3.6,3.6,0,0,0,.818-.07.709.709,0,0,0,.394-.239h.188l.755,2.709-.2.071a16.54,16.54,0,0,0-1.125-1.7,1.309,1.309,0,0,0-.847-.409c-.079-.009-.241-.014-.485-.014h-1.718v7.408a2.842,2.842,0,0,0,.182,1.3c.128.183.453.307.981.373v.184Z" transform="translate(-1151.4 -560.064)"></path><path style="" d="M682.475,393.075c1.312.443,4.328,1.143,6.472-.793a6.335,6.335,0,0,0,2.214-2.839l.486-1.321c.107-.366.2-.757.282-1.183a2.672,2.672,0,0,0-.36-1.457,1.733,1.733,0,0,0-.967-.7c-.033,0-.07,0-.1-.007a2.539,2.539,0,0,0-.263-.016c-.03,0-.063,0-.094,0-3.781.126-8.32,8.062-8.32,8.062l.653.248Z" transform="translate(-619.493 -282)" fill="none"></path><path style="" d="M1328.725,320.371l.032-.156-.075.146Z" transform="translate(-1207.219 -223.354)" fill="none"></path><g transform="translate(0 74.389)"><path d="M43.869,160.4h0a12.087,12.087,0,0,0-1.85.292c-2.266.421-8.565,1.966-18.728,7.24,11.206-8,16.843-13.909,19.615-18.076.282-.35.533-.684.742-.995,0,0,2.157-3.011,1.8-5.932a2.72,2.72,0,0,0-.3-1.171c-.011-.029-.023-.05-.034-.074-.04-.1-.082-.192-.13-.286a4.393,4.393,0,0,0-3.606-2.557c-4.222-.922-16.024,5.4-25.949,11.391V139.341a10.75,10.75,0,0,0,0-3.464v-.14l-.029.006c-.67-2.734-3.134-1.095-3.134-1.095-1.228,1.151,0,4.692,0,4.693.313,2.461.74,6.464,1.1,12.141C5.92,156.06,0,160.108,0,160.108l.723.723s5.571-3.852,12.72-8.166c.234,3.935.435,8.61.546,14.075l.036.565c.008.143,1.032,21.187,1.117,21.932l.289,1.134V151.478c9.707-5.727,21.5-11.721,26.381-10.354,0,0,10.825,1.245-16.863,24.03l-4.037,4.04H21.92s27.174-12.126,33.542-4.208a11.091,11.091,0,0,1-.061,9.69c-.594.861-1.261,1.8-1.931,2.687a13.186,13.186,0,0,1-3.287,3.267,24.053,24.053,0,0,1-2.775,2.2c-.431.276-.946.6-1.538.972l-.071.04c-11.027,6.287-41.35,22.5-45.224,22.972l-.009.288L2.6,208.706s19.478-10.752,31.259-16.9a91.74,91.74,0,0,0,8.406-4.122c.034-.018.434-.239,1.084-.614.926-.534,1.87-1.1,2.812-1.7,3.9-2.469,9.488-6.457,10.724-9.711h0a10.511,10.511,0,0,0,1.811-7.9S58.645,158.27,43.869,160.4Z" transform="translate(0 -128.697)"></path><path d="M748.8,83.621c-.18-.219-.541.036-1.947.682s-14.276,4.905-14.276,4.905l-7.642,2.127c.035-.069.058-.11.058-.11l3.257-7.641c2.056-5.3.253-8.186.253-8.186-.9-2.272-2.668,0-2.668,0a54.236,54.236,0,0,0-2.09,5.879l-1.081,5.731a49.017,49.017,0,0,1-1.26,5.2l-5.157,1.217-.757.25v2.272l1.982-.683,3.123-.918-8.117,15.01c-2.018,4.3-3.128,3.636-3.128,3.636-.916-.7-.188-7.513.336-10.269.371-1.447.1-1.941-.216-2.085a.648.648,0,0,0-.577,0c-.513-.032-1.091,1.393-1.574,2.99-.609,1.73-3.171,8.189-4.564,11.881,0,0-1.832,2.312-2.975-.459a57.458,57.458,0,0,1-1.7-9.454c.006-.255.017-.5.032-.741a48.938,48.938,0,0,1,1.983-6.275c1.045-2.772-.289-2.844-.289-2.844-1.218-.128-1.685,1.12-1.893,1.872v0c-.006.02-.014.051-.025.1a1.716,1.716,0,0,1-.136.445,3.845,3.845,0,0,0-.093.707,59.179,59.179,0,0,0-1.044,7.835c.143,1.2-1.153,7.429-1.153,7.429a10.059,10.059,0,0,1-1.371,3.352c-1.625,3.02-2.457,2.394-2.787,1.842-.488-1.069-1.219-2.932-2.316-6.15a3.474,3.474,0,0,0-1.53-1.9s-.44-.333-.663.245c0,.006,0,.014-.006.02-.735,1.478-2.37,8.784-2.37,8.784-1.318,3.584-3.1,4.81-4.343,5.209a3.388,3.388,0,0,1-.813-.037,4.212,4.212,0,0,1-1.831-1.884l-.577-1.513c-.007-.022-.014-.049-.02-.072-.785-3.143.6-9.612,1.074-10.942a23.216,23.216,0,0,1,2.6-3.99,33.191,33.191,0,0,1,2.549-2.253c1.781-1.542,1.082.373,2.379.076a1.3,1.3,0,0,0,1.028-.985c-.019-2.337-1.381-2.266-1.8-2.19.337-.139-2.2-.426-3.384.754a9.194,9.194,0,0,0-2.219,2.286c-.71,1.224-8.957,18.508-10.839,22.46-1.835,2.113-3.165,1.373-3.165,1.373-6.24-2.885-3.914-14.248-3.751-15.013,2.056.547,8.01,1.543,10.011-4.563.064-.118.1-.181.1-.181a9.742,9.742,0,0,0,.883-3.527h0s1.042-3.58-4.1-3.722c0,0-4.327.684-7.432,8.127a11.456,11.456,0,0,0-.939,3.511c-.481,2.374-1.181,7.385.436,11.16.008.035.014.067.021.1,0,0,1.622,6.072,5.163,6.058a4.62,4.62,0,0,0,2.962-1.3,6.364,6.364,0,0,0,.866-1.224h0l0,0c1.41-2.356,3.59-7.034,3.59-7.034l1.823-4.151.854-1.641c0,.026-.009.057-.013.086a4.657,4.657,0,0,0-.159,1.349,27.845,27.845,0,0,0,.211,5.582c1.484,5.909,5.813,4.144,5.813,4.144,2.6-.832,4.685-8.627,4.685-8.627l.121-.33c.89-2.193,2.279-.392,2.55-.006l.014.019c.011.018.019.032.025.041a12.527,12.527,0,0,1,.822,1.461c.008.03,1.022,3.679,2.492,3.074a1.235,1.235,0,0,0,.7-.346l.035-.017c-.007,0-.018.009-.035.017a1.08,1.08,0,0,0,.092-.087,14.759,14.759,0,0,0,2.938-4.129c1-1.676,1.351-4.918,1.426-5.748a19.339,19.339,0,0,0,2.589,6.8c.452.885.959,1.556,1.5,1.687,0,0,1.121,1.025,2.234-2.7h0s2.7-7.749,2.849-8.218a6.572,6.572,0,0,1,1.586-1.843,18.477,18.477,0,0,1-.181,2.49,15.687,15.687,0,0,0,.047,2.349h0v0a4.107,4.107,0,0,0,.818,2.406s.508.972,1.155.829a3.071,3.071,0,0,0,.695-.516h0a6.935,6.935,0,0,0,1.4-1.945l.017-.028c1-1.675,2.784-4.641,2.861-4.8l5.423-10.825,0-.005c-.006.022-7.2,24.258,0,29.238a4.675,4.675,0,0,0,3.364-4.544A18.21,18.21,0,0,0,724,120.1l1.262-6.725s1.284-2.607.668-3.516a1.264,1.264,0,0,0-1.367.649,3.056,3.056,0,0,0-.4,1.9s-.653,7.8-1.736,10.442a8.919,8.919,0,0,1-.468.761s-3.112,3.648-3.342-6.138v-.008c0-.032.06-2.142.2-4.9a60.809,60.809,0,0,1,1.36-8.4h0a67.356,67.356,0,0,1,3.788-10.8l6.416-1.881,11.753-3.823s2.378-.286,2.884-.286,3.461-.11,3.785-1.478S748.981,83.834,748.8,83.621Zm-79.158,19.145c.031,0,.064,0,.094,0a2.528,2.528,0,0,1,.263.016c.034,0,.07,0,.1.007a1.732,1.732,0,0,1,.967.7,2.672,2.672,0,0,1,.36,1.458c-.08.425-.175.817-.282,1.183l-.486,1.321a6.335,6.335,0,0,1-2.214,2.839c-2.144,1.936-5.16,1.237-6.472.793h0l-.653-.248S665.862,102.891,669.643,102.765ZM720.5,97.017l-.044-.01.075-.146Z" transform="translate(-598.994 -74.389)"></path><path d="M1426.416,302.385h0c.363-.7.653-1.233.653-1.233,1.3-3.2-.938-3.169-1.513-2.954s-1.154,4.075-1.262,5.552a11.321,11.321,0,0,1-1.226,3.535s-2.416,5.117-3.731,6.2c0,0-1.173,1.552-1.749-.219a23,23,0,0,1-.613-5.009,62.63,62.63,0,0,1,.468-6.453c.289-.937.686-3.065-.793-3.1,0,0-1.73-.614-1.84,2.7l.758,4.473s.4,7.641,1.622,9.084c0,0,1.334,2.037,2.306,1.018a7.874,7.874,0,0,0,1.912-3.587l1.693-3.7c.113-.246.181.254.181.254l-.192,2.143c-.052.452-.155,1.436-.255,2.856v.009h0a108.52,108.52,0,0,0,.06,15.219s1.167,14.492,2.451,19.179c.594,2.165.913,3.328,1.085,3.955v0h0l.2.727s.494,2.178,1.544.937c.975-.227-.709-4.975-.709-4.975C1419.782,317.131,1426.416,302.385,1426.416,302.385Z" transform="translate(-1285.475 -277.663)"></path></g></g></svg>