<svg id="Group_1007" data-name="Group 1007" xmlns="http://www.w3.org/2000/svg" xmlns:xlink="http://www.w3.org/1999/xlink" width="46.174" height="34.63" viewBox="0 0 46.174 34.63">
  <defs>
    <clipPath id="clip-path">
      <path id="Path_1045" data-name="Path 1045" d="M0-12H46.174V22.63H0Z" transform="translate(0 12)" fill="#333"/>
    </clipPath>
  </defs>
  <g id="Group_1006" data-name="Group 1006" clip-path="url(#clip-path)">
    <g id="Group_1005" data-name="Group 1005">
      <path id="Path_1044" data-name="Path 1044" d="M28.288,16.03a1.445,1.445,0,0,1-1.443,1.443H24.6a5.722,5.722,0,0,0-9.939,0H1.513a5.756,5.756,0,0,0-4.969-2.886,5.756,5.756,0,0,0-4.969,2.886h-2.245a1.445,1.445,0,0,1-1.443-1.443V11.7h40.33c.043.528.072,1.027.072,1.443ZM19.63,23.244a2.886,2.886,0,1,1,2.886-2.886,2.889,2.889,0,0,1-2.886,2.886m-23.087,0a2.889,2.889,0,0,1-2.886-2.886,2.889,2.889,0,0,1,2.886-2.886A2.889,2.889,0,0,1-.571,20.358a2.889,2.889,0,0,1-2.886,2.886M-10.671-5.614H12.416a1.445,1.445,0,0,1,1.443,1.443V8.815H-12.114V-4.171a1.445,1.445,0,0,1,1.443-1.443M23.959.158a2.472,2.472,0,0,1,2.185,1.708L27.63,7.805c.075.294.141.649.208,1.01H16.744V.158Zm6.473,6.949L28.946,1.168a5.336,5.336,0,0,0-4.987-3.9H16.744V-4.171A4.334,4.334,0,0,0,12.416-8.5H-10.671A4.334,4.334,0,0,0-15-4.171v20.2a4.334,4.334,0,0,0,4.329,4.329h1.443A5.778,5.778,0,0,0-3.457,26.13a5.778,5.778,0,0,0,5.772-5.772H13.859a5.772,5.772,0,1,0,11.543,0h1.443a4.334,4.334,0,0,0,4.329-4.329V13.144a29.65,29.65,0,0,0-.742-6.037" transform="translate(15 8.5)" fill="#333"/>
    </g>
  </g>
</svg>
