<svg xmlns="http://www.w3.org/2000/svg" width="40.611" height="39.788" viewBox="0 0 40.611 39.788">
  <path id="Path_17792" data-name="Path 17792" d="M36.839,9.3H29.552a5.387,5.387,0,0,0-8.4-6.657A5.9,5.9,0,1,0,11.4,9.3H3.772A3.776,3.776,0,0,0,0,13.07v2.968a3.778,3.778,0,0,0,2.738,3.627V36.047A3.747,3.747,0,0,0,6.48,39.788H34.248a3.747,3.747,0,0,0,3.742-3.741V19.629a3.778,3.778,0,0,0,2.62-3.591V13.07A3.776,3.776,0,0,0,36.839,9.3ZM22.2,6.413A2.883,2.883,0,1,1,25.082,9.3L22.2,9.315Zm0,5.432h5.678v5.5H12.965v-5.5H22.2ZM16.277,2.522a3.405,3.405,0,0,1,3.4,3.4v3.4h-3.4a3.4,3.4,0,0,1,0-6.8ZM3.782,17.343a1.262,1.262,0,0,1-1.261-1.261V13.106a1.262,1.262,0,0,1,1.261-1.261h6.661v5.5ZM15.425,37.377H6.5a1.231,1.231,0,0,1-1.231-1.23V19.864H15.425Zm7.471,0H17.946V19.864H22.9Zm12.679-1.23a1.231,1.231,0,0,1-1.231,1.23H25.417V19.864H35.575ZM38.2,16.082a1.262,1.262,0,0,1-1.261,1.261H30.4v-5.5h6.543A1.262,1.262,0,0,1,38.2,13.106v2.976Z" fill="#333"/>
</svg>
