<svg xmlns="http://www.w3.org/2000/svg" width="40.001" height="40" viewBox="0 0 40.001 40">
  <g id="Group_24308" data-name="Group 24308" transform="translate(0 0)">
    <path id="Path_20163" data-name="Path 20163" d="M58.011,36.378a4.105,4.105,0,0,1-.44-.233l-.018-.013a3.51,3.51,0,0,1-1.083-4.817,20.238,20.238,0,1,0-7.2,6.364,7.76,7.76,0,0,0,8.82.938,1.253,1.253,0,0,0-.078-2.24ZM50.38,35.347a.985.985,0,0,0-.133-.1.961.961,0,0,0-.13-.1,1.2,1.2,0,0,0-.285-.138,1.308,1.308,0,0,0-.165-.038,1.273,1.273,0,0,0-.275-.018,1.3,1.3,0,0,0-.238.035,1.127,1.127,0,0,0-.2.068,1.362,1.362,0,0,0-.143.048,17.509,17.509,0,1,1,5.565-5.173l-.01.028-.015.015a6.017,6.017,0,0,0,.488,7.067A5.406,5.406,0,0,1,50.38,35.347Z" transform="translate(-19.976 -0.004)" fill="#333"/>
    <path id="Path_20164" data-name="Path 20164" d="M39.45,4.306l-.365.005a7.412,7.412,0,0,0-4.123,1.751,7.059,7.059,0,0,0-4.3-1.754l-.07,0A7.145,7.145,0,0,0,25.359,6.6,7.774,7.774,0,0,0,23.272,12a10.441,10.441,0,0,0,2.617,6.51,27.737,27.737,0,0,0,6.9,5.7,4.067,4.067,0,0,0,4.266.023l.333-.2a27.3,27.3,0,0,0,6.808-5.6,10.245,10.245,0,0,0,2.6-6.45A7.526,7.526,0,0,0,39.45,4.306Zm2.872,12.457a24.75,24.75,0,0,1-6.215,5.109l-.353.215a1.589,1.589,0,0,1-1.676-.025,25.264,25.264,0,0,1-6.313-5.209,7.9,7.9,0,0,1-1.992-4.914A5.27,5.27,0,0,1,27.2,8.294a4.63,4.63,0,0,1,3.363-1.486,4.578,4.578,0,0,1,3.388,1.821l.981,1.309,1.006-1.286A4.884,4.884,0,0,1,39.42,6.808,5.008,5.008,0,0,1,44.292,11.9,7.72,7.72,0,0,1,42.323,16.763Z" transform="translate(-15.026 6.462)" fill="#333"/>
  </g>
</svg>
